<svg width="202" height="58" viewBox="0 0 202 58" fill="none" xmlns="http://www.w3.org/2000/svg">
  <rect width="202" height="58" rx="29" fill="none"/>
  <path d="M17 36.8C17 32.0546 20.8466 28.208 25.592 28.208C30.3374 28.208 34.184 32.0546 34.184 36.8C34.184 41.5455 30.3374 45.392 25.592 45.392C20.8466 45.392 17 41.5455 17 36.8Z" fill="url(#paint0_linear_123_1)"/>
  <path d="M42.4162 12C47.7674 12 51.1237 17.789 48.4572 22.4285L36.7802 42.7441C34.3054 47.0513 28.0927 47.0987 25.5525 42.8297L17.7732 29.7566C15.0961 25.2582 18.3379 19.536 23.573 19.536C26.0295 19.536 28.3104 20.8285 29.5806 22.9407L31.5251 26.1737L35.8522 18.5082C37.2528 16.0267 39.8798 12 42.4162 12Z" fill="url(#paint1_linear_123_1)"/>
  <path d="M67.6802 45V18.52H75.8102L89.2302 36.1V18.52H98.9302V45H91.2102L77.3802 26.86V45H67.6802Z" fill="#F5F3FF"/>
  <path d="M111.008 45.52C108.381 45.52 106.081 45.04 104.108 44.08C102.161 43.0933 100.654 41.7067 99.5882 39.92C98.5215 38.1333 97.9882 36.0333 97.9882 33.62C97.9882 31.2867 98.5082 29.24 99.5482 27.48C100.614 25.6933 102.081 24.3067 103.948 23.32C105.841 22.3067 108.021 21.8 110.488 21.8C112.901 21.8 115.028 22.3067 116.868 23.32C118.734 24.3333 120.188 25.7467 121.228 27.56C122.294 29.3467 122.828 31.4333 122.828 33.82V36.14H106.898C107.111 37.42 107.714 38.4067 108.708 39.1C109.694 39.7667 110.928 40.1 112.408 40.1C113.554 40.1 114.568 39.9133 115.448 39.54C116.328 39.1667 117.168 38.5933 117.968 37.82L122.668 42.72C120.468 44.5867 116.581 45.52 111.008 45.52ZM106.738 31.94H114.978C114.818 30.7667 114.354 29.86 113.588 29.22C112.848 28.5533 111.914 28.22 110.788 28.22C109.634 28.22 108.681 28.5533 107.928 29.22C107.174 29.8867 106.778 30.7933 106.738 31.94Z" fill="#F5F3FF"/>
  <path d="M131.786 45.52C130.173 45.52 128.693 45.28 127.346 44.8C126.026 44.2933 124.999 43.5733 124.266 42.64C123.559 41.7067 123.199 40.6133 123.186 39.36H131.906C131.959 40.08 132.239 40.6267 132.746 41C133.253 41.3733 133.933 41.56 134.786 41.56C135.479 41.56 136.013 41.44 136.386 41.2C136.786 40.96 136.986 40.6267 136.986 40.2C136.986 39.6667 136.666 39.28 136.026 39.04C135.386 38.7733 134.319 38.4933 132.826 38.2C131.106 37.88 129.639 37.5067 128.426 37.08C127.239 36.6267 126.199 35.8267 125.306 34.68C124.439 33.5067 124.006 31.9067 124.006 29.88C124.006 28.2667 124.479 26.8267 125.426 25.56C126.373 24.2933 127.733 23.3067 129.506 22.6C131.306 21.8933 133.399 21.54 135.786 21.54C139.173 21.54 141.879 22.2533 143.906 23.68C145.959 25.1067 147.106 27.04 147.346 29.48H139.026C138.946 28.76 138.679 28.24 138.226 27.92C137.799 27.5733 137.173 27.4 136.346 27.4C135.679 27.4 135.159 27.52 134.786 27.76C134.413 27.9733 134.226 28.2933 134.226 28.72C134.226 29.2533 134.533 29.6533 135.146 29.92C135.786 30.16 136.813 30.4 138.226 30.64C139.919 30.9067 141.373 31.28 142.586 31.76C143.826 32.2133 144.879 33.0267 145.746 34.2C146.639 35.3733 147.106 36.9867 147.146 39.04C147.146 40.6533 146.666 42.08 145.706 43.32C144.773 44.56 143.399 45.5333 141.586 46.24C139.773 46.92 137.839 47.26 135.786 47.26Z" fill="#F5F3FF"/>
  <path d="M157.983 45.52C155.77 45.52 154.05 45 152.823 43.96C151.597 42.92 150.983 41.3733 150.983 39.32V29.42H146.683V22.32H150.983V16.9H160.283V22.32H166.443V29.42H160.283V39.2C160.283 40.2667 160.857 40.8 162.003 40.8C162.643 40.8 163.283 40.6267 163.923 40.28L166.123 46.8C164.51 47.7067 161.797 48.16 157.983 48.16Z" fill="#F5F3FF"/>
  <defs>
    <linearGradient id="paint0_linear_123_1" x1="17" y1="28.208" x2="34.184" y2="45.392" gradientUnits="userSpaceOnUse">
      <stop stop-color="#95AEFF"/>
      <stop offset="1" stop-color="#5B6FE8"/>
    </linearGradient>
    <linearGradient id="paint1_linear_123_1" x1="18.296" y1="14.736" x2="50.3868" y2="43.9011" gradientUnits="userSpaceOnUse">
      <stop stop-color="#7E97FF"/>
      <stop offset="1" stop-color="#A8B9FF"/>
    </linearGradient>
  </defs>
</svg>
