<svg width="1920" height="660" viewBox="0 0 1920 660" fill="none" xmlns="http://www.w3.org/2000/svg">
  <g opacity="0.45" stroke="#A7B0D8" stroke-width="1.4">
    <path d="M-40 620C340 560 667 484 960 428C1253 372 1560 372 1960 476"/>
    <path d="M-40 648C280 544 620 470 960 432C1300 394 1628 430 1960 548"/>
    <path d="M-40 584C286 612 618 592 960 540C1302 488 1634 494 1960 602"/>
    <path d="M120 660C412 540 684 474 960 462C1236 450 1522 500 1840 660"/>
    <path d="M420 660C604 556 782 500 960 488C1138 476 1326 518 1500 660"/>
    <path d="M748 660C826 578 896 528 960 514C1024 500 1092 532 1170 660"/>
    <path d="M-20 456C252 504 594 528 960 518C1326 508 1650 470 1932 380"/>
    <path d="M-12 388C360 458 672 490 960 490C1248 490 1588 450 1948 336"/>
    <path d="M160 252C494 380 764 442 960 442C1156 442 1454 384 1798 246"/>
  </g>
</svg>
